<svg xmlns="http://www.w3.org/2000/svg" width="1200" height="614.072">
    <path d="M314.078 527.776c.808 24.27 2.985 20.968 3.208-.765-.737-.967-3.41-.842-3.208.765zm-64.893-64.538c5.692 2.731 6.996-3.357 0 0zm-63.163-32.28c12.921 25.783 16.616-17.326 0 0zm124.353 129.076c16.823 11.21 10.568-21.246 14.448-30.64-9.979-19.782-23.37 4.39-15.421 18.438.325 4.068.638 8.136.973 12.202zM246.72 172.431c12.372 19.732 14.488-15.74 0 0zm-25.238 290.807c14.425-.302 31.912 12.702 43.699 0-3.804-10.102-30.016-13.454-37.952-7.056zm-40.937-32.28c2.537 21.073 17.282 19.588 33.209 12.41-1.33-13.534-23.101-33.206-31.87-16.29l-.88 2.55zm123.571 129.076c9.56 17.384 29.225.727 25.426-14.742 8.851-16.752-5.975-35.873-23.817-25.083-9.18 8.136-.358 28.076-1.609 39.825zm-63.964-387.603c3.8 23.03 35.864 4.006 15.752-6.67-4.461-3.112-16.722-.655-15.752 6.67zm-65.084 258.526c1.818 14.23 19.279 32.394 18.71 32.281 21.446 2.235 43.175 10.061 64.075 10.288 19.146 1.58 25.39-26.7 2.67-23.505-14.357-4.965-37.942 1.68-39.038-19.064-12.17-7.43-31.102-29.394-41.086-9.747-3.235 2.448-4.162 6.081-5.331 9.747zm119.468 0c-19.126 22.593 6.472 11.001 21.253 7.677 23.744-12.99-8.879-21.093-19.627-8.376zm3.32 129.077c7.496 15.011 27.948 15.328 35.256 0 .353-13.982 12.852-30.447.639-41.433-11.605-8.867-35.54-9.198-38.152 7.676-.156 11.15 1.639 22.547 2.257 33.757zm-64.272-387.603c6.925 15.166 22.611 27.42 33.076 7.948 8.462-16.198-17.821-25.423-29.684-16.693-2.587 1.067-1.934 6.406-3.392 8.745zm-49.612 290.807c20.708 10.63 46.616 8.461 68.66 17.14 12.712-2.97 38.488-7.662 33.02-25.02-2.557-16.668-28.338-9.14-41.015-14.924-13.098-2.657-18.041-21.256-33.507-25.48-15.454-13.322-28.141-11.206-37.991 6.741-9.494 14.045 7.23 28.196 10.833 41.543zm107.625 96.796c8.03 13.016 25.852 22.948 38.544 10.06 14.186-9.095 10.945-28.639 17.791-42.318-7.049-13.154-25.462-24.157-39.691-18.635-20.668 1.154-20.86 21.19-17.762 37.16.369 4.578.746 9.155 1.118 13.733zm-64.581-387.603c6.3 10.668 22.596 35.75 33.632 20.473 18.158-8.482 16.729-30.986-3.426-35.31-9.352-3.775-31.878.691-30.206 14.837zm-49.559 290.807c18.096 15.52 45.516 11.32 66.984 20.43 14.243 3.448 32.16-1.898 43.514-10.858 13.938-11.606 7.118-24.654 30.124-25.897 16.418-4.263 28.637-27.933 5.533-31.974-14.505-8.36-30.09 7.848-44.688 11.172-11.385 6.881-24.684 16.513-35.243 3.21-16.115-13.85-34.29-25.24-54.207-32.652-8.824 9.1-22.204 20.161-25.361 34.288 2.378 11.68 9.762 21.068 13.344 32.281zM119.023 75.356c14.532 17.733 17.227-11.902 14.634-22.72 2.612-14.386-10.583-33.857-14.212-9.654-.357 10.786-.054 21.59-.422 32.374zm224.924 194.081c11.793 1.447 36.1 11.54 40.387-2.582-9.324-8.893-27.85 3.562-40.387 2.582zm-58.61 290.597c7.466 11.062 24.532 26.174 37.628 18.35 23.49-6.183 25.14-31.598 32.49-50.608-7.114-16.652-24.49-20.228-39.666-26.608-14.7 6.303-36.47 8.242-32.863 29.298.805 9.856 1.609 19.712 2.411 29.568zm-36.446-355.26c7.571 9.287 20.463-15.97 29.097-22.33 8.974-16.982-15.074-28.539-27.965-31.077-15.393 1.244-37.765 9.873-25.717 28.18 4.891 10.936 17.447 15.903 24.585 25.227zm-77.948 258.464c17.728 19.006 47.167 14.87 69.764 24.913 17.247 6.63 34.715-5.115 52.86-2.553 9.143-11.21 12.674-27.724 29.092-31.833 14.663-7.562 32.833-20.046 24.316-38.75-15.231-5.573-30.08-20.974-45.974-9.118-16.39 5.901-32.364 12.84-48.369 19.7-18.345-16.399-40.868-32.475-65.79-34.46-12.562 2.94-16.408 21.565-25.342 31.522-7.467 13.668 6.623 27.35 9.443 40.58zM109.694 75.356c8.598 15.432 27.572 19.41 33.12 0 1.43-18.955 2.823-38.213-9.957-53.92-5.707-23.01-12.436-.58-17.526 8.84-8.565 13.417-3.947 30.14-5.637 45.08zm200.605 226.4c2.139 26.503 12.15 9.207 21.992-3.477 9.745-12.795 23.968-15.44 39.091-16.5 13.782 1.141 38.03-10.996 20.444-24.499-11.069-17.838-27.95-4.384-43.354-1.628-13.38 3.812-33.178 3.332-42.023 11.738 6.042 9.98-.651 23.511 3.85 34.366zM183.556 140.081c5.646 12.05 34.848 8.922 33.065 22.864-7.707 21.813 19.803 34.784 29.568 51.176 7.137 22.111 24.896-4.644 27.467-16.232 11.306-10.862 18.285-29.848 1.512-39.498-14.256-11.102-29.48-14.07-46.02-5.959-12.029-8.149-26.77-18.083-42.192-17.67-3.257 1.573-6.264.69-3.4 5.32zm-19.128 323.157c19.236 22.522 52.39 19.094 77.877 30.365 11.96 5.913 34.905 12.578 36.08 25.661-2.62 14.454-2.228 32.083 3.986 45.045 8.511 11.403 27.172 25.09 40.594 18.617 17.329-5.774 29.84-19.717 32.855-37.734 11.99-13.062 1.521-30.909-6.996-38.486-15.635-4.199-30.295-11.417-45.987-9.917-18.917-2.383 22.97 1.945 17.69-17.633 3.07-16.784 16.83-23.056 28.872-33.096 15.254-11.202 6.407-29.44 26.346-35.178 21.232-9.31 3.265-24.969-12.838-21.852-15.904-.94-31.769-1.649-47.118-6.474-17.452 16.605-42.148 20.456-63.157 30.881-18.102-15.606-42.107-26.614-65.79-28.43-20.888-2.292-17.312 18.38-28.236 30.17-10.738 16.833.687 31.576 5.822 48.061zM100.365 75.356c12.244 7.578 22.714 33.901 37.394 17.4 20.42-7.725 13.308-32.8 16.044-49.774-8.576-13.107-10.64-34.496-27.487-39.17-16.4 2.328-17.62 23.457-24.038 35.776-2.536 11.566-.823 23.96-1.913 35.768zM1136.59 10.601c.68 1.072 1.05-.837 0 0zm-657.375 484.91c8.899 5.023 42.668 8.23 23.355-3.56-7.915-.968-15.578 2.48-23.355 3.56zm25.931 64.523c.69.6.14-.96 0 0zM175.402 140.081c2.426 15.517 30.051 12.844 34.26 24.22-4.376 14.168 7.465 28.812 16.553 39.262 16.145 8.15 16.273 33.661 34.055 37.456-.956-16.344 26.537-16.834 21.495-35.643 7.194-12.15 14.89-29.71 4.352-41.743-9.648-10.04-26.1-22.605-40.402-20.009-16.828-10.05-38.57-9.225-56.241-18.5-7.268 4.475-22.185 2.886-14.072 14.957zm-17.488 323.157c18.273 25.764 54.862 20.11 78.317 36.167 10.014 7.29 35.526 8.524 35.046 23.49-1.787 20.417-1.146 47.276 20.914 56.51 15.137 11.284 30.196 13.435 45.126.568 20.711-9.117 23.262-34.255 33.183-52.197-9.699-12.723 3.325-33.042-21.826-31.482-2.74-9.128-5.501-33.823 8.322-39.162 12.182-10.117 11.36-29.458 25.912-36.79 13.952-6.53 21.386-29.813 3.527-35.793-16.44-9.11-37.055-6.92-54.398-15.183-23.206-1.16.627-23.157-6.13-35.298 12.447-14 17.507-35.496 35.522-43.062 17.815-4.28 41.786-2.41 50.732-21.569-2.525-15.548-15.442-26.554-27.083-35.466-10.89-12.575-26.449 11.168-41.425 10.12-16.85 5.788-34.678 8.11-51.786 13.102.249 15.348 7.97 27.378 9.642 43.052 2.57 16.21 11.235 30.755 10.019 47.414 9.337 19.1-9.344 26.513-21.673 36.737-12.624 4.372-26.747 16.248-39.154 15.26-26.373-12.099-55.726-28.009-84.913-16.008-7.15 8.81-11.916 26.177-15.29 39.15-6.027 12.62 4.355 27.825 7.416 40.44zm-32.669-355.516c10.462-3.702 28.596-12.414 33.273-24.9 4.66-18.55 9.315-40.367-2.927-57.21-4.872-18.085-23.476-34.377-42.248-24.41C98.469 9.367 96.596 30.57 92.136 45.68c.265 14.953-6.145 32.6 10.633 40.834 7.487 7.075 14.987 14.136 22.476 21.21zm-1.612 258.65c20.858 18.823 20.815-7.065 0 0zM1126.15 10.602c.482 20.035 23.773 8.75 33.24 0-14.062-1.39-24.314-20.606-33.24 0zm-621.957-32.39c.314 1.427 2.237.523 2.921 0m-13.291 581.822c6.344 21.59 25.442 9.593 37.706.263-5.193-8.608-21.228-33.547-29.145-25.929-3.133 8.517-16.395 16.337-8.561 25.666zm-226.467 1.036c-3.659-12.798-1.409-30.307-4.278-41.218-14.227-12.18-37.141-5.677-46.815-24.34-27.037-7.666-65.23-14.984-69.846-48.339-4.68-15.244-3.22-31.637 2.558-46.003 12.65-18.635-9.26-19.857-22.659-23.779-21.802-10.66 3.847-25.292 17.088-15.834 20.228-2.622 22.639 22.571 41.565 11.617 22.835 1.198 46.63 6.56 67.663 16.82 16.453-8.777 41.161-15.218 46.215-34.787-3.015-14.593 5.676-28.89-3.904-42.785-1.382-16.058-7.198-31.19-18.235-42.985 7.523-22.567-25.751-9.627-30.523-27.458-9.66-18.066-23.792-32.296-38.159-46.704-5.887-14.26-.927-32.562-18.552-35.34-17.355-4.062-23.899-16.797-26.302-33.329 15.472-7.572 30.955-13.31 46.524-2.59 23.303 8.046 48.426 9.805 68.25 25.313 10.934 5.924 23.76 20.583 17.154 33.698 12.071 14.055-13.121 30.183 4.664 41.714 5.862 15.575 6.14 21.75 26.228 12.368 17.827-10.444 35.43-21.259 52.955-32.2 12.688 13.558 26.374 25.707 44.065 32.2 6.221 12.511 2.812 31.523-5.43 43.12 5.65 17.283-22.068 5.166-35.012 14.663-19.445-1.479-22.313 18.918-29.234 32.112-12.223 13.84 6.916 25.92 13.734 36.643 11.645 6.8 26.68 12.516 38.676 21.318 4.32 15.858-.183 29.33-6.538 41.167 10.781 22.754-19.193 14.982-23.614 30.802-10.905 6.702-1 40.602 10.527 31.51 18.133-10.238 38.635-18.64 58.596-22.31 19.081 6.83 37.35 15.617 58.311 13.71 16.718-.353 30.156 18.846 15.52 31.26-8.718 20.127-24.912 12.343-40.54 5.354-19.5-7.23-39.896-12.3-60.691-8.283-12.148-.97-36.376-18.816-38.717 1.474 2.97 19.835-10.731 34.902-16.853 52.56-7.663 16.276-27.928 30.079-46.344 30.074-19.098-.005-40.149-15.348-48.047-31.213zM115.864 107.722c11.27 7.293 32.31 17.172 41.633 1.796 19.988-8.45 5.147-23.81 13.432-39.548 2.946-15.728 4.268-31.18-5.233-45.03-6.398-22.792-32.382-40.22-54.948-29.314-23.378 5.74-24.841 35.68-27.867 55.447-4.529 17.577 1.075 31.331 16.412 40.99 5.53 5.213 11.047 10.44 16.571 15.66zm999.846-97.12c-5.356 14.591 19.682 30.981 30.642 20.904 7.676-6.343 43.74-18.386 27.401-23.563-15.536.846-29.011-21.456-41.014-15.538-6.466 5.49-13.258 10.325-17.029 18.196zm-626.061-32.39c6.575 18.93 31.097 8.016 42.615 0M260.299 560.033c-7.745-11.066 5.109-35.019-10.3-39.19-11.717-9.379-40.268 3.706-41.587-7.344 5.411-18.105-19.858-19.688-31.139-26.552-21.923-6.8-38.758-26.058-38.535-49.64-1.02-14.134-1.98-30.19 3.538-43.96-5.885-8.65-31.138-9.696-32.738-26.976 9.259-16.387 27.13-13.812 42.438-9.2 30.808 9.861 63.851 10.173 94.546 19.247 16.205 5.534 31.864-12.48 38.009-26.362 9.114-17.6 3.167-37.993-1.852-55.736-9.414-11.398-18.057-27.457-30.047-32.093-15.406-20.698-27.56-43.717-48.73-59.468-10.56-11.18-.975-34.812-19.242-37.983-16.57-4.896-26.555-14.954-27.91-32.445-5.622-15.147-30.203-9.333-43.312-17.483-12.484-14.607-31.423-26.458-40.967-42.19 1.687-21.466 1.167-44.486 10.027-64.162 7.797-16.75 20.986-17.254 37.885-21.942 14.438-1.526 32.954 5.482 42.627 16.966 10.383 12.37 18.927 29.341 20.13 45.195-.32 16.485-10.043 32.99 1.054 47.516 1.721 17.285 21.034 15.348 33.381 22.598 17.092 8.542 38.612 7.926 54.276 17.18 12.529 9.487 26.48 14.112 28.354 31.237 2.036 12.762 10.17 28.693 5.856 42.51 8.62 20.483 23.807.735 36.378-4.983 13.742-6.694 26.87-27.042 37.873-28.868 11.099 25.984 32.63 44.936 58.84 54.88 22.212 2.833 2.303 21.926.218 34.936-5.878 11.428 14.48 26.462 7.662 37.51-19.513 7.516-40.938 1.368-61.311 1.99-5.403 10.777-21.01 28.37-7.165 37.651 9.515 13.86 23.402 19.14 39.759 19.595 24.945.393 25.482 6.892 4.096 18.484-11 9.438-6.98 34.062 7.368 40.96 9.05 12.101 21.101 19.75 34.084 30.206 22.527 13.46 47.946 16.638 71.268 28.132 5.712 15.696 5.354 31.656 2.927 47.526 6.466 9.6 26.73 29.414 13.493 36.69-13.966 10.71-30.367 16.955-46.288 24.082-12.473-12.226-27.653-27.872-27.252-45.45-6.027-7.85-25.35-16.775-38.597-18.456-19.14 8.451-44.61 5.214-61.695 17.051-7.675 13.867-12.944 30.878-25.301 41.242-10.35 8.68-24.286 16.41-37.703 14.85-21.93-2.546-41.758-19.664-54.416-37.75zm-81.063 0c3.287 16.39 32.968 7.78 35.562-2.498-4.313-14.25-30.593-27.115-32.778-4.715-1.53 2.16-1.958 4.766-2.784 7.213zM1136.88-21.789c18.63 16.023 40.041 24.102 63.12 31.47m0 3.36c-18.923 13.298-40.008 24.814-59.394 35.94-18.446-1.546-38.273-4.652-57.406-5.999 11.54-12.595 24.727-18.062 25.003-36.912 6.422-11.962 19.135-18.528 28.587-27.859m-71.3 258.898c.886 13.933 39.64 19.278 31.217 5.797-3.981-11.062-24.82-19.276-31.217-5.797zm-.86 64.647c4.869 20.758 25.593 4.616 38.725 2.45 11.24-8.458 5.436-23.42 30.3-15.47 16.145-1.983 24.617-24.32 6.9-32.484-12.05-5.122-38.03-6.863-36.805 13.185 5.772 25.297-23.99 7.87-33.45 19.838-2.705 4.067-7.93 6.935-5.67 12.481zM475.106-21.789c2.44 16.707 24.07 22.192 37.976 19.377 16.578-2.594 30.196-10.879 44.332-19.377M253.532 553.965c-3.017-23.629-7.492 17.043-24.065 15.432-12.785 7.357-30.847 12.944-44.749 8.802-19.852-3.46-19.872-24.065-9.22-37.423 8.924-13.34 6.48-30.054 8.67-45.265-14.861-7.1-31.66-10.9-39.917-26.109-13.958-14.124-11.315-36.767-12.612-54.983 5.487-19.27-6.3-22.26-20.038-32.912-18.433-10.65-1.653-27.178 11.626-32.47 26.116-3.6 53.522 11.651 80.709 9.94 16.923 1.69 35.225 8.878 51.369 7.395 11.656-12.725 29.804-25.313 22.68-45.274 5.893-21.976-11.5-40.872-29.746-49.413-3.074-12.918-17.179-23.182-21.693-36.684-9.909-18.467-37.58-24.015-36.501-48.015-9.56-12.03-27.002-18.826-41.222-26.082 10.783-7.717 2.84-35.135-11.694-34.214-16.885-3.39-33.839-7.68-43.948-22.676-9.203-10.416-23.441-18.99-30.023-30.422 2.208-21.542.695-44.925 8.172-65.095C75.834-5.62 55.793-27.939 85.013-20.516c27.428-2.035 53.95.123 80.309 8.18 6.79 10.11 15.786 25.365 21.734 39.296 13.695 12.117 15.145 24.918 4.271 41.147-7.952 15.495 18.374 23.695 16.945 39.615 22.116 9.71 45.315 16.635 69.326 19.57 8.969 13.81 30.398 15.814 27.712 35.548 6.442 8.222 3.136 41.404 17.06 30.602 18.723-10.804 33.528-26.603 38.733-47.977 2.933-17.466 21.428-22.146 36.629-17.408 14.806 1.72 29.54 4.038 44.373 5.55 9.883 14.2-20.54 14.156-29.855 16.726-11.956.185-19.89 24.162-7.97 35.072 10.725 23.442 34.286 35.754 58.398 41.172 21.422 7.963 4.496 22.366-.672 36.2-12.002 13.79 17.431 37.06-4.751 44.881-20.519 9.575-46.275 5.442-62.348 24.025-1.883 9.745 23.313 20.568 35.763 22.752 13.737.183 38.108 15.598 14.786 23.802-15.677 5.12-26.474 24.504-9.267 34.752 12.743 9.565 29.731 12.286 41.576 24.304 28.323 24 66.55 15.046 100.3 21.016 16.373 11.304-19.39 17.052-24.389 27.938-1.858 13.442 6.098 28.993 17.149 38.497 10.555 9.33 28.214 21.572 24.609 35.29-4.468 17.005-27.915 20.482-44.97 25.416l-41.37 11.97c-33.307 9.635-32.3-35.108-42.895-49.69-9.926-13.663-28.794-15.546-45.132-7.335-14.455 3.72-33.304 2.976-43.347 14.422-15.645 17.832-2.282 43.876-64.428 47.738-53.479-9.745-55.41-35.755-59.76-48.59zM0 12.268c23.617 4.092 24.39-8.164.258-4.597L0 7.713m1148.81-29.502c15.661 11.713 32.705 19.346 51.19 25.525m0 134.693c-5.72-2.243-5.993 5.006 0 4.323m-78.9-164.54c-11.178 12.277-27.811 24.63-26.97 42.872-8.38 6.413-39.899 16.483-22.749 28.188 21.293 6.616 44.528 5.698 65.459 14.622 16.857-2.666 31.487-8.5 41.886-22.192 7.482-3.67 14.363-8.28 21.274-12.905m-146.84 272.96c3.108 13.507 18.419 32.98 33.38 22.645 22.613-6.742 44.838-16.185 68.293-17.737 23.092.018 11.121-22.278 13.177-37.228-2.16-16.945-19.812-23.31-27.426-36.992-19.608-14.64-43.978-18.389-66.904-25.123-6.923 12.507-29.037 21.463-27.577 34.795 2.3 14.445 30.935 25.58 13.283 39.59-6.686 6.314-8.563 10.986-6.226 20.05zm-493.921 32.311c-.936 22.293 34.652 6.197 16.646-3.818-4.835-2.07-16.536-4.29-16.646 3.818zM460.562-21.789c19.203 14.022-25.11 28.845-11.943 31.704 35.502-1.04 70.933 1.442 105.014-9.483 23.135-20.906 57.292-7.286 82.653-19.807l1.478-2.257.103-.157m-462.116 0l9.519 2.156c1.761 18.156 6.981 35.355 24.375 43.99 14.29 8.963 21.71 22.232 13.516 38.05-7.491 15.212 3.432 29.62 4.055 45.315 21.463 8.268 45.772 17.233 68.41 8.927-2.956 2.36-.803 19.066 14.85 28.906 2.877 8.542 2.219 41.48 12.064 19.132 7.017-14.09 26.191-32.9 11.701-47.51 13.842-8.554 32.302-24.976 48.181-14.098 17.073 5.001 37.555 1.946 55.887 3.974 12.346 2.551 11.701 23.097 21.311 30.864 1.065 15.45-24.872 16.47-36.382 22.656-19.464 10.184 1.136 26.61 9.116 37.942 11.481 21.444 44.928 7.626 55.71 28.48 20.949 10.007-.402 23.763-6.07 37.648-6.959 11.541 7.722 31.52-3.238 40.075-17.198 16.19-43.543 12.483-62.095 24.51-15.643 10.047 18.283 17.713 26.943 20.43 15.1 1.892 36.677 19.508 19.583 32.265-12.326 5.13-38.636 20.303-11.386 24.748 18.677 3.321 33.398 12.876 48.188 24.286 24.932 9.26 52.809 11.901 79.467 14.865 13.374-1.434 39.036 9.528 35.415 21.335-7.748 15.693-22.296 21.77-38.116 28.354 20.265 9.06 40.585 21.278 51.211 41.33 5.46 10.503 22.74 22.94 3.613 32.388-19.127 9.448-50.75 45.989-121.406 41.58-70.658-4.41-43.991-58.859-65.4-64.373-17.531-1.483-36.816 4.603-52.494 13.598-18.383 10.547-24.886 37.913-44.828 45.088-44.156 15.89-125.304-12.837-140.117-13.7-18.441 4.171-32.627-8.199-48.187-15.902-9.733-22.444 12.347-41.49 9.056-64.25 9.768-22.377-20.17-17.394-25.84-33.045-10.13-12.95-14.767-27.306-16.047-43.89-4.548-17.356.733-39.888-19.578-48.763-16.309-8.662-10.878-28.77 4.763-34.655 14.62-16.28 35.081-4.309 53.535-4.349 28.73 6.893 58.335 5.66 87.596 8.204 16.276-9.327 16.358-25.52 17.44-41.893 3.097-19.37-16.497-32.612-33.45-35.249 7.094-15.476-14.018-25.557-16.097-40.52-9.546-11.204-21.703-26.874-36.41-28.144-22.092.084-49.563-5.15-59.358-27.309-10.19-17.666 27.489-22.2 18.585-39.56-2.797-17.225-27.563-11.843-40.205-19.92-17.67-14.206-32.732-33.64-51.913-46.82.182-14.203 9.232-32.489-5.642-41.385 14.72-25.298-11.611-12.29-26.846-12.933L0 17.317m367.718 25.666c9.117 15.771 33.991-10.324 6.358-2.498l-6.358 2.497zM183.874 301.756c7.66 16.78 30.194-13.468 0 0zM0-1.034C16.457-3.708 34.537-3.277 43.854-19.61l1.876-1.94.23-.238m1114.77 0c11.955 8.91 25.197 14.862 39.27 19.581m0 81.03c-14.203 7.424-36.326 7.84-35.635 28.443-.31 21.383 20.301 16.083 35.191 17.54l.444.025m0 209.332c-27.209-8.235-56.655-17.835-83.923-4.312-21.659 1.888-27.87 23.497-38.167 38.684-14.625 3.745-11.195-23.688-18.98-32.977-6.913-14.155-19.631-24.42-17.992-41.86-2.838-14.437-14.7-27.48-14.7-43.478-10.282-17.19 11.777-23.559 20.682-35.48 9.3-14.146 24.098-18.02 40.07-18.868 13.355-5.956 36.37 12.473 42.238-4.082 3.252-26.344 20.128-7.622 26.792 5.848 1.142 15.285 19.62 23.222 22.79 39.472 11.127 11.608-2.341 32.222 10.76 43.204l10.43 8.421m-94.59-310.523c-14.397 9.574-15.058 30.318-26.04 40.405-10.902 6.477-32.475 20.16-17.96 33.215 19.059 12.588 43.584 10.527 63.876 21.29 12.374 3.618-16.669 16.795-25.326 19.547-11.456 2.827-41.036 4.174-32.55 20.86 21.293 10.387 47.134 5.377 69.43 14.435 18.902-2.31 33.655-6.533 22.722 14.503 22.152 14.09-28.011 29.37 2.215 19.132 12.415-7.339 25.275 1.523 38.223 3.14m-.36 333.685c-2.302 3.072-30.344 75.721-62.954 95.45-23.151 14.006-53.83 10.704-80.766 8.139-29.373-2.798-55.332-26.557-84.813-25.343-24.624 1.014-61.16 25.449-68.859 26.92-20.25 3.872-38.921-17.33-59.53-16.779-20.948.56-38.743 23.058-59.51 20.26-10.058-1.355-17.695-10.254-25.196-17.09-19.853-18.09-44.056-49.063-51.216-62.204-1.305-15.869-8.87-32.476 3.507-45.59 8.373-11.946 21.586-26.439 2.352-36.154-10.962-9.494-30.767-13.46-24.354-32.064 6.526-21.38-20.969-15.868-33.707-19.843-16.425.216-23.397-18.236-38.856-22.3-9.663-8.028 1.89-16.552-8.985-29.742 4.975-16.428-22.41-20.189-34.133-24.874-13.763-1.678-37.208 2.922-30.398 22.118 1.497 14.151 28.286 25.382 6.845 36.943-4.873 18.306-29.558 14.16-42.616 23.006-6.615-7.532-28.138-15.153-23.463-28.797-1.979-18.299-24.821-23.572-39.873-29.684-24.48-4.078-4.817-14.087 9.315-15.55 18.368-3.05 32.975-12.894 47.863-23.489-.437-18.114-2.736-38 13.714-50.116 11.804-11.748-.235-29.86-4.951-43.657-6.7-11.929-28.596-8.44-41.413-13.747-15.024-2.779-30.483-6.193-36.836-21.805 12.67-13.536 39.775-11.004 45.862-32.35-10.93-11.002-15.359-29.164-26.327-38.41-15.408-3.474-32.295-5.854-46.765-9.432-15.622-12.206-26.674-18.08-6.277-32.457 10.58-12.087 30.802-7.54 44.805-14.956 16.153-5.177 27.65-22.124 46.238-21.432 20.599-6.486 42.052 1.776 62.574-6.314 17.615 4.63 27.48-6.15 44.187-11.034 18.474-7.376 41.436-3.588 54.088-21.818l3.941-6.017m-89.842 452.746c24.248 5.91 3.537-11.865 0 0zM446.018-21.789c-3.414 12.694-25.43 16.674-34.693 27.616-9.26 15.11-23.116 17.937-40.441 17.632-20.76.64-40.442 2.954-60.412 9.074-19.093 3.727-38.643 4.055-57.84 7.093-5.678-15.138-27.011-22.944-23.695-39.806 2.432-7.435 10.023-12.736 8.513-21.609m8.708 129.511c11.646 6.918 36.482 2.31 21.894-13.958-8.944-5.765-10.379-39.085-16.126-28.168-.476 14.15-6.645 28.122-5.768 42.126zm-76.136 194.034c-3.402 18.75 25.467 16.537 38.13 13.457 18.2.104 19.815-27.506 1.435-25.484-13.052 4.253-29.782 1.062-39.565 12.027zM0-9.782c10.887-1.42 20.24-1.725 26.588-12.007M0 22.367c16.957 2.496 33.882 5.052 43.862 20.615.474 13.63-11.128 31.804 3.812 40.31C64.776 93.86 82.285 108.2 91.901 125.355c13.96 3.442 33.287 5.677 42.732 14.726 3.15 17.191-28.493 16.716-25.497 34.921 1.626 15.642-7.22 30.522 7.998 37.503 4.308 24.478 17.902 16.528 32.715 4.318 16.771 6.963 37.6-9.839 50.19 7.04 16.138 10.43 18.328 31.004 29.254 45.574-14.38 21.693 17.349 14.894 27.375 25.773 11.227 10.676.23 28.11.795 41.33-12.338 9.196-32.143 2.933-47.47 8.006-28.684.95-58.028-9.284-85.941-7.487-12.319 8.964-31.68 16.534-34.84 31.885.84 20.121 23.532 30.68 21.67 51.701 7.053 24.226 13.856 50.52 30.754 69.401 19.551 2.52 9.593 24.051 11.694 37.73-5.953 14.04-1.036 31.492-8.982 44.29-10.799 17.394-28.296 34.541-48.533 37.642-23.798 3.646-56.667-33.61-67.709-25.147L-.286 598.153M1172.65-21.79c8.318 6.254 17.523 10.352 27.35 13.637m0 109.95c-8.613.531-10.743 11.602 0 9.432m0 245.343c-21.269-4.059-42.287-9.16-63.16-14.905-17.047 9.102-26.818 25.87-38.55 39.764-14.77 10.168-29.294 17.131-41.96.062-10.86-10.342-11.188-28.829-20.039-41.63-11.895-13.707-.358-27.83-6.574-43.48-2.944-15.265-29.291-18.968-24.057-37.368-3.431-15.443.258-30.468 15.073-38.293 15.15-12.403 27.342-32.032 49.44-29.77 17.939-1.735 35.582-4.524 48.337-18.522-7.116-13.569 13.12-33.574-12.02-35.642-17.634-6.832-37.297-5.574-51.94-19.265-2.49-17.075 11.376-29.863 27.05-32.683 26.125-3.948 17.176-15.86-4.357-16.827-14.964-5.044-36.97-16.26-27.734-35.532 9.658-12.596 28.713-18.776 30.41-37.195 2.454-6.353 3.959-12.88 9.811-17.076m-32.91 485.027c4.182 18.287 29.455 8.582 42.47 4.644 29.565-5.046-4.18-8.92-13.756-18.932-10.662-17.663-27.87.86-28.714 14.288zm-34.34 64.538c18.34 4.938 37.06 9.088 51.2 22.69 6.791-11.908 14.35-35.262-8.095-31.849-14.907-1.285-28.75 6.146-43.105 9.16zm-210.134 0c3.024 14.931 25.639-13.47 0 0zM668.398-21.789c-6.074 16.124-23.709 21.712-33.569 34.056-2.462 14.87 2.244 36.734-19.853 34.72-19.336 5.49-44.067 11.97-61.431.59-18.583-19.854-55.486-23.9-77.953-6.699-11.171 14.671-28.279 10.68-43.756 16.1-10.677 2.144-42.8 16.144-23.094 24.438 15.361 11.94 36.469 10.706 54.686 15.38 6.829 16.152 18.18 29.49 28.677 43.285-9.585 14.811 4.415 31.114-21.973 31.821 6.774 5.507 28.545 6.394 39.71 13.245 10.724 9.214 36.702 14.6 25.413 32.657-2.428 14.678-3.622 36.6 15.572 40.351 14.188 10.89 30.79 6.038 47.069 10.556 4.08 2.821-27.416 10.351-33.418 22.242-19.701 15.176 5.09 13.3 16.733 16.564 19.352 1.832 36.11 9.443 50.368 22.626 15.328.85 30.192 4.07 41.693 14.905-10.979 15.82 9.023 30.47 24.002 31.623 24.872 12.102 53.668 10.717 78.69 21.997-.897 15.207-1.673 30.852 1.61 45.276 1.158 16.347 2.705 28.38-19.679 28.895-11.863 9.912-27.184 21.058-19.808 38.462-1.56 17.786 9.446 34.908 27.75 37.08 16.851-.677 4.768 25.672 18.332 34.356l19.89 6.612M497.565 366.372c-2.898 18.967 31.554 8.452 24.64-4.948-1.59-11.853 8.081-32.984-1.45-39.834-16.64-14.813-26.183 8.245-43.331 7.836-28.79 2.918-16.646 7.53 4.364 12.51 10.921 2.041 5.106 19.457 15.777 24.436zM338.401-21.788C348.842-9.149 363.845-4.254 378.947.472c9.532-8.057 19.052-15.994 29.895-22.262M250.461 301.756c2.656 13.69 3.068-7.167 0 0zm-82.699 32.312c16.801 2.963 33.59 3.568 50.375 0-14.767-9.714-31.452-1.44-46.676-10.14-9.332-5.544-2.347 5.958-3.699 10.14zM0-18.53c2.928-.546 5.613-.123 7.217-3.259M0 27.417c14.393.996 38.235 7.445 31.429 26.226-7.103 16.528-.911 30.54 15.348 37.986 14.162 8.46 32.023 18.507 28.587 37.81 7.698 10.56 31.786 5.387 45.875 9.811 21.907-1.566-41.536 24.04-22.35 18.335-2.012 13.848-3.57 30.296-16.69 38.843-16.173 16.093 23.284 12.735 23.241 29.994 8.537 11.804 22.334 27.531 36.34 13.198 14.314-10.002 32.551-19.93 49.807-15.329 17.803 9.042 17.58 30.534 27.892 45.146.164 20.826-24.11 14.464-37.982 19.473-18.518-1.483-27.02 16.172-28.232 28.741-15.83 4.053-31.56 8.457-42.199 21.115-10.692 8.26-29.843 18.326-28.085 32.75-2.388 15.77 1.54 27.572 13.182 40.717 8.62 18.777 11.304 41.05 18.53 59.76 10.132 11.096 25.062 20.122 24.021 35.106 3.555 19.222-5.784 37.685-5.44 56.488-7.07 8.799-18.503 40.048-35.99 36.767-21.07-6.297-40.534-25.173-48.518-36-5.866-14.502 16.888-24.947 18.204-38.525-5.047-13.289-22.35-30.727-3.812-40.948 13.268-11.79 8.758-26.76 8.665-42.304 4.054-18.86-14.717-25.697-30.027-25.064-14.772-.127-27.897-5.954-41.796-10.46M1184.57-21.789c4.699 3.595 9.846 5.848 15.43 7.692m-125.96-7.692c-12.425 12.25-21.855 25.751-28.727 41.613-10.294 14.191-9.584 39.39 10.13 45.285 25.443 7.161 9.435 18.474-5.43 27.73-6.132 12.473-11.449 34.51 7.774 38.57 6.992 7.653-25.692 9.48 6.56 11.151 14.427-1.418 29.709 13.087 34.29 25.984-1.856 16.381-27.694 13.277-41.013 16.447-12.094 6.934-39.14-14.842-26.134 9.048-20.413 16.262-45.492 36.751-38.992 66.171-11.634 24.95 32.028 26.017 26.472 48.878-6.396 14.811-14.71 28.626-.39 41.768 10.108 13.295 13.19 29.435 1.67 42.84 9.83 12.485 1.326 32.337 4.56 45.89 9.344 9.156 15.015 34.711 3.36 39.361-12.246 6.135-34.697 9.76-40.276 18.914 6.395 11.765-6.278 29.492 5.226 41.176 21.007 9.082 42.317 16.816 60.48 31.255 13.626-2.043 35.968.916 36.42-18.6 5.574-13.847 15.49-36.7-4.554-43.138-6.56-12.686-40.31-4.39-34.423-16.96 11.222-8.987 29.938 3.445 44.564-5.61 21.282-4.153 43.674-8.064 60.563-22.746-17.695-13.153-39.831-18-56.74-32.28 7.606-16.947 26.168-25.019 42.188-31.21 19.443-.194 39.004.95 58.382-.06M745.148 10.601c14.693 12.928 27.153-9.233 4.332-4.315zm58.91 578.748c22.081-1.285 14.537-32.023 31.163-40.312 9.162-11.83 40.122-20.078 14.914-31.57-12.39-12.198-24.28-22.649-9.16-36.64 4.97-14.642 28.878-9.282 41.559-16.354 3.072-5.806-26.196-7.512-34.29-11.372-10.54-6.587-32.2-13.86-29.812-29.12 4.795-17.524 3.426-31.449-17.305-34.047-24.476-13.517-57.095-9.134-79.123-26.013-6.372-13.35-.828-31.09-13.258-42.935-7.927-16.25-22.341-20.254-39.328-18.35-32.481-.677-1.52-1.91 14.079-3.009 16.142 1.91 23.484-19.62 24.512-32.888-2.638-17.954-26.27-16.998-35.815-29.607-15.056-6.233-28.328-15.297-40.615-25.92-20.783 4.98-23.389 17.202-29.317 30.793-13.415 12.047-35.254 14.502-50.13 3.442-9.456-15.545 8.528-31.57 17.829-39.884-5.92-4.179-22.886-18.048-33.52-24.594-19.342-6.188-20.203-27.176-28.242-42.392-15.238-11.44-26.221-29.362-34.225-46.888 25.152-13.698 53.29-14.333 81.167-16.333 18.393-6.555 36.947 7.634 55.164 10.904-2.642 14.575 17.01 38.67 30.679 23.424 5.646-14.67-1.821-34.116 7.065-49.232 7.584-16.49 7.449-36.16 15.9-51.63 13.194-6.692 10.883-20.562 19.714-30.61m-186.362 64.77c-25.351 8.588 3.75 23.127 14.715 13.405 19.937-6.709-4.915-23.94-14.715-13.405zm-80.29 32.374c15.632 13.023 37.477 11.136 56.321 16.004 17.467-9.727 29.4-19.17 3.662-26.69-15.754-7.128-37.009-3.048-52.379 4.498zM0 32.466c21.37-1.648 26.045 17.775 17.389 33.978-4.805 15.78 16.738 23.975 26.963 32.777 19.726 5.9 12.18 27.052 16.24 42.174 8.537 11.097 31.08 16.18 22.12 33.607-4.763 13.937-20.786 20.565-31.643 29.772 19.706 9.333 42.012 16.518 54.035 36.437 10.576 13.858 26.512 18.511 41.802 9.16 14.924-5.829 31.68-29.61 48.199-16.144 6.422 12.141 12.397 27.798 12.994 40.375-9.631 10.093-31.02 6.85-45.215 11.61-17.597 3.286-16.05 24.786-31.063 26.79-19.482 5.054-26.19 25.51-43.803 33.782-11.346 13.594-12.362 25.483-16.883 41.681-7.003 17.28 20.38 25.115 21.605 42.492 4.35 15.942 2.522 35.84 12.108 48.883 18.816 9.44 18.028 31.94 18.352 49.528-7.09 14.948-9.806 31.556-16.677 44.017-7.781 4.574 1.38 17.913-8.874 17.064-10.253-.849-31.744-21.147-17.273-37.31 9.489-12.367 20.706-27.056 10.154-42.376-9.84-15.588-6.5-27.798-4.076-42.91-4.518-19.58.566-43.638-18.904-56.634-9.935-10.389-31.636-4.628-37.756-21.294-5.006-10.182-20.726-.864-29.794-2.677m0-15.433c13.762 1.661 14.627-8.76 0-7.956M1196.5-21.789l1.55 1 1.95.747m0 429.708c-23.367 1.974-46.128 8.774-65.8 21.291 17.8 10.576 35.357 21.701 53.19 32.281-24.233 18.55-52.253 31.385-74.86 52.121 1.152 19.506-3.04 40.956-15.13 56.787-15.082 6.546-52.394 6.308-43.787 11.52l11.056 6.153c10.633 2.316 18.607-3.896 26.411-4.217 10.504-1.892 49.819 11.91 33.634-4.52-16.931-11.59 5.993-24.693 2.343-40.89-2.354-18.467 13.181-25.746 28.543-30.47 14.716-10.297 29.022-22.04 44.4-32.056m-147.41-305.235c8.266 6.724 40.306 3.834 21.09-8.362-8.136.6-15.166 2.44-21.09 8.362zm-295.089-32.35c-1.602 5.685 2.895-1.22 0 0zm-46.46-161.87c12.512 12.22 27.274 16.342 44.3 12.317 13.861 1.376 38.828 13.405 23.393 29.191-23.446 14.45-52.593 4.514-74.427-9.118 25.353-11.149-17.705-23.917-13.5-2.016-12.07 20.992-18.85 46.142-25.682 69.47-.284 15.152 5.288 32.736-11.42 41.004-14.195 11.78-29.078 13.816-44.827 3.58-14.288-7.829-18.98-28.207-37.361-30.347-22.352-1.253-46.297 1.6-68.768 4.044-22.155 1.77.395 27.167 12.757 27.872 22.542 3.684 25.411 30.666 40.051 44.678 13.13 17.342 38.25 12.932 57.538 18.035 15.188 4.06 35.47-.637 47.8 5.85 7.37 25.877 39.736 30.051 61.725 38.68 26.99 1.78 11.852 17.817 7.625 31.96.578 14.504-2.598 29.82 2.27 42.967 7.792 17.004 9.125 37.65 25.38 50.112 17.279-4.454 31.743 4.405 47.116 10.187 20.212.863 38.667 15.431 49.12 31.991 3.901 13.434 7.704 29.85 20.026 37.428 15.273 5.806 36.542 13.925 41.53 29.747.012 21.316-26.332 9.19-39.088 17.793-22.897 3.606-14.768 21.638 1.5 28.645 12.472 8.51 36.812-.968 28.086 23.517-9.746 5.165-30.067.884-39.948 15.056-22.319 9.75 1.034 26.454 14.502 30.825 14.766 1.266 30.293-11.958 43.614-19.458-1.066-20.148 21.402-7.718 34.675-20.096 16.937-6.912 1.95-29.254-9.696-35.015-20.013 4.28-24.444-11.63-22.487-23.018 24.744 9.178 46.224-9.712 68.957-17.017 23.058-6.163-13.477-21.225-6.897-36.118 2.895-21.359 4.167-43.168 13.911-63-5.11-16.466-28.575-34.972-11.13-52.495 17.185-14.23-7.483-24.228-12.667-35.87-5.36-17.82 2.034-37.523 6.758-55.153 12.913-10.597 16.494-25.726 12.068-41.46.12-14.592-5.152-31.673-1.4-44.61 11.113-10.365 37.452-9.037 38.698-26.514 2.48-15.54.354-29.37-.6-39.63-10.278-8.028-.937-25.647-3.367-39.744-14.499-13.297 2.206-25.193-.961-40.41-1.706-5.312 3.343-9.24 5.045-13.86m-360.269 194.22c-16.659 20.574 15.85 11.71 27.409 8.804 9.731-4.967 48.027-7.852 19.902-12.236-14.417-4.872-31.429-3.43-44.93 2.104l-2.357 1.315zM565.108 237.11c16.279 12.45 9.026-17.547 0 0zM434.213 75.356c14.385 13.2 35.9-6.31 8.691-4.095-3.27.44-6.393 1.64-8.691 4.095zM0 37.516c21.217.636 5.27 23.751 4.437 35.566 7.3 13.546 21.521 26.301 35.738 34.64 5.655 18.616 3.428 41.035 21.762 53.453 20.69 10.533-3.929 23.624-14.303 30.385-23.053 8.723-16.277 20.92 4.841 24.817 22.17 2.9 35.877 20.417 49.721 35.693 13.948 11.062 27.712 18.896 44.883 9.847 18.902.828 29.534-15.12 42.625-24.808-.726 12.415 19.917 36.412.792 38.397-19.22 6.267-38.521-.213-57.795-2.8.801 16.633.494 32.466-17.401 38.58-16.084 6.433-18.461 25.174-34.149 31.986-10.021 11.87-12.33 30.586-20.664 39.25-29.552 4.51-9.947-14.823-26.638-19.26-11.07-3.918-22.058-6.455-33.849-6.527m1200 62.908c-9.585.744-47.002 8.464-25.602 16.963 8.488 5.246 17.066 10.344 25.602 15.511M1003.58-21.789c1.298 15.364-2.438 32.611 9.397 44.228 9.737 13.757 10.743 29.484.334 43.196-13.533 12.56 8.395 21.664 13.719 33.632 2.63 19.461-17.063 23.082-31.846 27.98-17.677 3.88-21.868 19.25-16.779 34.934-.053 18.856 8.168 39.904-4.258 56.304-1.356 18.18-11.658 35.596-12.256 53.532 3.1 14.907-14.562 26.631-4.143 41.385 5.287 14.9 4.439 29.843 12.852 44.12 8.677 13.74-.34 31.046-1.062 46.451-5.541 13.575-6.966 28.398-11.833 41.347-8.086 26.444-16.77 9.94-25.454-6.636-17.654-9.81-31.424-27.015-43.141-42.52-2.74-13.806-17.054-28.024-7.429-40.17 4.534-10.617 26.555-29.407 2.53-29.84-15.973-10.834-33.7-18.023-51.818-24.398-3.185-11.662-27.389-4.87-38.971-10.345-14.97-4.626-38.587 1.42-41.178-19.083-.02-19.376 35.229-13.46 31.767-35.219-16.3-21.117-46.411-22.2-69.6-32.335 24.302-12.159 57.953-10.964 74.31-34.875 1.663-12.862 22.757-32.727-.419-34.997-16.092-7.414-37.925-12.04-53.35-3.555-7.644 17.391-24.771 24.73-42.911 23.83-17.073 1.821-31.963-2.58-44.007-15.096 16.61-7.34 31.878-20.043 40.302-35.057-1.307-17.448-3.838-38.94 8.914-52.12 20.49-10.502 43.691-12.549 65.778-14.328 9.625-9.008 46.013 4.103 36.603-11.303 4.637-12.684-2.8-28.736 11.204-39.599 7.233-8.015 8.768-7.675-2.931-9.463m74.406 194.22c2.66 8.337 4.834-3.987 0 0zm-4.722 97.006c10.986 13.225 12.25-17.137 17.47-26.775-2.442-16.925-14.21-30.218-23.455-8.976-12.788 13.45 9.841 24.552 5.985 35.751zM564.629 140.081c21.894 12.627 13.365-1.38 6.527-15.914-.627-38.732-10.092 9.962-6.527 15.914zM185.29 269.437c5.85 2.52 7.153-3.76 0 0zM0 46.61c-1.156-.473 2.457-4.094 0-4.046m0 43.061c8.387 13.984 26.817 18.94 28.285 36.59 5.788 14.858 6.138 32.742 20.431 42.82 10.094 13.887-18.463 18.486-25.825 28.483-26.153 10.063-4.891 18.287 9.784 26.766 20.369 4.902 43.07 9.241 53.13 30.068 8.63 13.427 29.49 16.79 21.366 36.873 4.227 19.008-18.816 23.407-21.208 40.227-12.407 7.64-15.456 33.64-30.783 30.908-18.486-3.822-35.978-8.929-55.18-8.75m1200 80.01c-6.264.733-3.933 1.693 0 3.837m0 81.708c-10.39 11.27-25.082 20.116-4.094 31.836l4.094 3.87M945.867 398.668c5.498-1.538.01-23.81 1.605-32.349-1.172 9.062-1.333 21.996-1.605 32.35zM842.083-21.789c10.705 15.605-20.623 27.725 5.388 34.857 14.373 11.174 39.422 9.756 44.822 29.914-12.964 13.376-36.01 9.068-53.146 14.941-26.047 4.392-53.174 8.907-74.08 25.86-11.117 5.24-41.515 19.246-21.123 30.615 19.157-2.73 38.78 3.714 58.012 5.347 22.24 10.458 49.977 8.66 67.804 27.738 15.664-1.603 34.082 4.7 44.378 15.677 13.01 16.768-8.217 38.484 4.653 56.246 1.014 17.413 7.314 33.983 23.216 42.91 11.325 8.915 14.301-24.238 17.781-34.282-1.364-16.613 5.074-31.114 2.377-48.025 2.445-14.008-9.758-32.65-.159-43.354 13.55-16.615 34.889-17.84 53.304-26.479 3.26-19.482-36.327-18.507-27.452-39.837.626-13.242 31.622-22.485 15.964-33.64-14.766-10.776-22.453-26.926-19.358-45.12l.378-13.368M818.704 237.11c10.305 7.412 8.86-24.169 17.42-30.585-2.774-14.047-19.247-32.866-25.484-7.368-28.299 6.034 6.603 7.953 3.664 26.962 1.565 3.572 1.327 8.246 4.4 10.991zm-132.932-97.028c20.947 12.843 19.738-20.52 1.91-1.08zM0 193.987c9.215-11.058 39.807-16.745 23.59-33.394.291-20.406-10.103-44.456-23.59-59.349m0 241.24c21.074 4.413 42.343-4.149 63.158 1.41 12.866-10.344 7.889-28.1 16.015-39.583 3.46-10.233 12.992-32.5.187-39.492-10.937-9.915-12.77-30.664-31.645-29.069-16.781-3.634-34.699-2.408-47.715-15.343m0 215.108c13.385 7.77 35.346.852 45.02 7.45 2.8 17.134 13.626 25.567-7.328 37.807-14.078 11.093-8.323 27.325-4.793 41.976 2.463 13.944-17.033 28.206-10.828 42.044C35.693 578.966 7.825 578.972 0 586.168m1200-.489c-3.09 2.045-15.604 3.218-17.835 3.232-2.23.015-2.333.335-10.257-5.836-7.923-6.17 15.648-12.15 28.092-21.433M966.105-21.788c-.243 15.554-5.137 31.39 2.296 45.815 8.277 16.6 3.436 27.827-1.755 45.445 1.495 13.66-4.596 31.493 12.355 38.25-19.386-3.78-25.986 21.263-42.08 14.706-20.145-5.26-42.626-12.56-49.862-34.328-19.288-14.192 4.115-15.866 16.035-24.454 16.192-5.518 21.779-23.345 14.844-37.955-3.186-16.644-17.288-27.103-33.727-28.353-7.859-5.809-20.113-7.19-19.864-19.127M0 177.713c11.055-7.049 7.757-27.27 6.388-40.243-1.87-4.36-4.313-8.523-6.388-12.806m0 168.48c21.526-5.245 42.362-12.602 63.158-20.164-1.21-11.508-25.57-4.195-34.787-8.835-10.554-.194-19.361-3.228-28.371-8.664m0 79.878c21.872 5.796 25.85-12.613 5.414-19.993L0 311.703m0 212.811c-.821-22.264 4.681-44.419 19.807-61.276-4.76-7.396-11.907-8.25-19.807-10.105"
          fill="none" stroke="#202020"/>
</svg>